<mxfile host="Electron" agent="Mozilla/5.0 (Windows NT 10.0; Win64; x64) AppleWebKit/537.36 (KHTML, like Gecko) draw.io/27.0.9 Chrome/134.0.6998.205 Electron/35.4.0 Safari/537.36" version="27.0.9">
  <diagram name="Page-1" id="Rns0DOHz5rIhSwaRfsI8">
    <mxGraphModel dx="752" dy="574" grid="1" gridSize="10" guides="1" tooltips="1" connect="1" arrows="1" fold="1" page="1" pageScale="1" pageWidth="1100" pageHeight="850" math="0" shadow="0">
      <root>
        <mxCell id="0" />
        <mxCell id="1" parent="0" />
        <mxCell id="Xm3lGTiGLxlE6etcZNfa-1" value="" style="shape=image;verticalLabelPosition=bottom;labelBackgroundColor=default;verticalAlign=top;aspect=fixed;imageAspect=0;image=data:image/png,iVBORw0KGgoAAAANSUhEUgAAAc4AAAExCAYAAAD1IkJ8AAAAAXNSR0IArs4c6QAAAARnQU1BAACxjwv8YQUAAAAJcEhZcwAADsMAAA7DAcdvqGQAAEKbSURBVHhe7d0JfBRF2j/wX2DxQBAQEWVdOUyQcLxqkFdBXxA0SAD5E7kUUeOVKLqQrAsCyr0cHisBMZoga7xwCQrIRkCiQVBBBSPKESARgheiuAYU5RDy76e6JpmZTGZ6kpnM9fvup3a6q7unZzIyzzzV1VVRpaWlZSAiClEHDhxA27Zt9RqR/+zevRvNmzeHzwOn/EdMRORr8oXlCgMn1Ra/Bk7+R0xEvmT7wnKF3zlUW+S/Q1EeOH2ZKfI/YiLyJQZOCiYOgbOq/zC9wf+IicjXrATO6bPn6hoi/2LgJKKgZzVwTnwoUdcS+U8d/UhEREQWMHASERF5gYGTiMJOi5ZX6SXvVPc4wXO6F0rn9HQcAycRhZ3v9n2kl7xT3eMEz+leKJ3T03EMnERERF5g4CQiIvICAycREZEXAnof5yOPPKKXiELTjBkz9JKjpUuX6iWqyk033aSXPON9nBRMLAbOPciIj8PusaVIjzeXJ2wCuswsQN7INnofk7eBs6ovHqJg5+6/XwmcV1xxhV4jZ5s3b2bgpJBlsan2S+zelIR+8cZi3jxM6LAEpaVL0GHCPOSZOxAREUUEr69x5r2VjS5tLzaWLkbbLttRtMesJyIiigQWA2c80pcAQxo3xpDsJIyV5lnJPJGIPo4ttURERGHNesYZn47S0lKjpBthVK/njQTjJhERRRKLgTMPqY1Tna5nSich57oQcHA9MjLW46BeJQorJQuRmLgQJXqViHzP62ucjnx4jVMC2pQpmKJLxvogCG2Fb5S/HlXeKNQbQgx/LISntePRsmXLijJ+rd5ARP7kIXBKVtkYjRsPQbbxP7nG2bi8xGFCh7Fwuhulmgrxxvxt6PigLUgNQ/Mff9TbAuPg+gxMWQwMswucw7DDeKVEgVeyMBEtk4DsffuwT5dsrAFDJ5H/BXwABPM+OCNwTtmB9lMGIdbcVEGypfn5+EGtnIdeD45E93PNwDY/36wtr4exbw7QsXk+8rd2MoKePJ8892Js1Xt26t0LB7bY9tF1w6ZgkMOJD2K9PNFQ81yVOLwmfR6py/kRzY0zbTU2dBr2IJqtnQ95ier5mzluV0fazlvl81XxOl39TRzeu9qg95f3Yr4OcV6vBzEUORV/u/N64cGR3eHqbZJ7gbuPswQLE9OAOctwdytdZSNNtWrT3Wglyz2moUBtiMOkdeb+EnR7TDNry+thHte/3TRMWzTcCMiz0FPv4Q/+vo9TZreozgDf1T1O8JzuhdI5PR1nsanWzDxT7S9o5qWicXyGscUXYtG+01YsrtQcKpnoj+hpy/oe7IhtOWaT47ndR5ZnglOGNUf+On3cD/n4sb3US9CUoKHSxvJ9B0lML99Hju2ErWudmjEP7sC2H5qjmctoIq8pH831cz7Y6wAW217zDwfQbKh+zsUSeJ2e37bddt7FbxjP5u75XL3Oqv8mrvc/F92H9sJ5EiCN+pHtdyAnv7nxJzH3G9b8RwQ2tyevlbyL3IJ2aOMcNB2sxfgexRhly0jX9Udumnnts9Xdy8qz1H3Z7TAtU+epBdNQ3Fvq/Rs0a0N1v6Cre5zgOd0LpXN6Os5i4LQbAMEmfhRmYhlW++gaZ+wg/YVvfLGrRwkeB3/EASNDUwFVimRZP+gvesm6bPWLjRTrwI9m8DACRA9b9igBEHbrNvb7NGtm5GwunNcMzfSiA3lNdsef274jztuqm3DP64j2EmzlOe2XZZuw1YnY9kZueQA/7nL3fC5ep7u/iZX3dW4zlfUuniJBW/7uLrJ8Cn5x0WitF10q2YOdWIQk2/VPyTwLirFXbTOyS1t90iJg5x6zM1HcJKSEesQkqgUWA6cMdpCNt+wzzj2rsWxTB8T4+n6U2EFGQBiGTnbBQzIlFSRU0c2Y9tdEHzQyKnWwj0hw+WEbdjikoUHE1d9Eb/IsFoPUMe2xQz2aAZRCSKs2aFeQi3c9dZ01AuE6W2apipFJqubbXPRfp+vWTUKc3p2IrLEYONtgZJ4aAaGic1DcMiQW6Hs6a0oCoX0TrcrqjIxPBbB82FphHdhlbwd3bNPX+5yc2x4dUcXxbsWiRy8gf75jUCl8w1h3ek3q3J3ae5+1Fe7AVnkPl3j5fO7+Ju7YZepvqB7LEkAfRK/zjKw3WH8gUBV6ImUSMK3HeIfOQGvH262r4DoNtlZYB3H9cZ1u5i15N1dfAyUiqywGThGPdDUAgq3k+ahHrUEC3IHFFRmUZJNDpcOK8eVuZJMHFut6KXJbxbnd0bN5Pubrupwfm1eRcZrX9+yPf2O33uSBXENV1xv1cVIWQwKa42uaL9cLHXsWVc0IeLbXrHrsqk453j5fFX8TvdUl+Xvpa8gZO/4kvwj0sfOxreNQ1x2gKKjJdcp1k3ZWNMUaJQm97a5N9sQsI5vcmVSxvaXc39nqboxqNw09dF1acTtmnERest6rdk8G4uMmYBO6YGaBETS/TEXjx9uiwGn0oOr1qo0AklWrjrrswRouODtK9XF2FApl1nvVpkjTbCmWJOkqH3cOIiIiCgVe9Kr1Q0egSHJud4xktklEFPIsBs549Ety6lXL2VGIiCgCeTFykAyCEIcJm/QqkrDENlOKHW+vcRKFMl7jrB5e46RQFtAh94jClQROco+Bk0KVh8Ap04m9hX6l/fCWGui9CklLUJpu5p4MnETkawycFEw8XOOUezdtzbHSNGt/H6etLEFS9luhNy8nERFRNVjuHFQRQJ2520ZERBReLAZOIc22dkPuNY5HBu/hJKIgJNNCVUd1jxM8p3uhdE5Px1kMnNKjdgiwxK6JtiARy+JS2URLREEnEqa+Ejyne/46zmLgdDGtWJs+SOyyHUXMOomIKIJYvB3FvIdz99hS6M6zeuza3RjrdH3Tm1617LJPFNms3pLCXrUUTLy4j1OucdrfklLzARB4kzhR5PJmEAQGTgomXnQOcp5WjD1piYgo8lgMnJJtsiMQERGRxcAZj1EztzsO8k5ERBSBLGec8yZsQvYQ+/s4pTALJSKiyGI543S8vunn65xrx6Nly5aqjF9rrJcsRGLiQpSYW4mIiALGc+CU205qNcNci/FJOzFp3T7sWzcJO+dFaMDkjwUioqDkIXDuQUbKBHSwjRi0BBiS6ufQWbIHO9EObVoZy63uxrJld0MWiSi4ffHFF3qpMnfbiEKNh8DpNGJQfD/4dyYUI9vsMQ0FWIQkaartey/6OmddkonpZtyWLROx0GVKZjxP+T52zb3ldeONPXRd4niMT7TtV4KF5cuVt5fXiyqfbyEWjve0v37dVe5vvI404+9QMA09jLpEY+eShYnl+7RkJkpB5tdff8XLL7+MNWvW6JoKUifbZB+icGDxGmdt6YlZ6yYhLm4S1u3bh30ZV+F0vcUkgbUYo2SblHX9kZvmHEQk+CUB2Xofo8zqaQbkdrpu3aSdSLJFtIKdiJ5j1GcPx6KkNMC2bGsitm2X51L7SJB093zTUNzbbn/1PG5et8v9W+HuORV/h2XXvYu0ae2Mt2Tul92uGHvVyYiCQ4MGDTB58mTk5eU5BE9ZljrZJvsQhQMLgTMbQ8qvccrIQfbrtdyrVjXj6mxUimSnBU5BpORd5GISUnrqdSHHGUHIVtfquv6IW7TGzBLj+uM6aQtuHW0EKrtl2SZsdaJnbww3XsGeD9w9n925bc/j7nW72t9ZqzZop443M9ues2YZPzGIgotz8Axk0IyEGTwEz+mev47zEDir6k1rKwEYPUhnYSpDUyVEgkiNXreRiatjemONCr66aZgoyNgHz0BmmpEwg4fgOd3z13FB1lTrgWReBdOQ6S5qtLoO/eG0j9NxJe/momB4b+8D7to1WCQZ6DVePp+V1+2KLSstWYjx6qKoBNB1mBRnZL28yElByhY8AxU0ifwttAKnBA65RSVJN3lKqdRRxrw+aL/P+LWOx/WQ64WzLIZNI+BJBx31XHLpVPXy9fb5rLxuJ63uxqjhZvNu4rvGl8+0HvrYHsjtPwd3s6sxBTEJmAyaFK68mB3FmrCaHUV6vUp/Id4SQ+RznB2FQlWIZZxERESBxcDpDgdgICIiJwycREREXgj4NU4iily8xkmhKKCBk4jICgZOCiZsqiUiIvICAycREZEXHAKnNHnUtBAREYUzh8Ap1xBqWoiIiMJZQDsHycV8IopcE8eN1kvusXMQBZOAB06r/3CIKLx48+/f28Ap00JVZ2aM6h4neE73Qumcno5j4KQaOXr0GA4dOoRTp07pGgpGderUQaNGjXDGGY5TwweSPwMnkT+xVy3VCINmaJDPSD4rIqo5Bk6qEQbN0MHPisg3GDiJiIi8wMBJRETkBQZOIiIiLzBwEhEReYGBk4iIyAsMnERERF5g4CQiIvKCxcCZh9TGqcb/29uDjHjnOiIiovBWw4xzO4r26EUiIqII4CFwSlbZGI0bD0G28b8hjWXZVuIwocNYjGyjdyUiIooAHgJnG4zMK0VpaRUlPV7vR0QUPGR2i+qo7nGC53QvlM7p6TjrTbV5qXbZpq3wGicRBZ/qTl9V3eMEz+leKJ3T03EWpxWTzkGPo21Bnsem2XCaVqyoqAjffvutXqt9devWRZcuXXDGGWfomuCzf//3eil47N13EvsPBG5A87p1o3BZpz/h9NN0RRC54ILz9VLgcVoxClVeBM630K80HZ4aZ8MlcErQjI2NxcmTJ3VNYAwePBhLlizRa8En2AKnBM3uNx4yPjddESD9e5+GrDkN9FrwYOAkqjmLTbXxGDVzO96KoHZZyTRtQbNBgwa1Xk47zUxXdu3apR7JGsk0bUHzrPpRtV7q1TPP/WVJgCM3EfmNxcCZh3kTNiF7SORd45Qg9ssvv9R6mTFjhjp/06ZN1SN5R4JY0aYmtV7Gja6vzt+ksfXuA0QUWixnnOmuetVaaLolIiIKJ9Z/Fu/JQLzKMuORIYMeSC/b+Axw/AMiIookFgPnHmSkLENiQSmWJOmq+FGYiWVYzchJREQRxGLg/BK7N3VADEcJIiKiCGf5Gme/pGzHXrV58zABiegT4cF08+bNeP3117F06VKPt66sXbtW7bt+/XpdQ4F06PAvyF3znipHjx3TtURE7lm+xhmfXoC2jzfGkOxNmBDXGI2HAEvyRiLSk9ATJ05g2LBhGDRoEDIyMnRtZQUFBYiPj8eQIUPw008/6VoKpD37vkZy2qOq/Fx6WNcSEblnvXNQpXFr2aNWdO3aFffcc49anjhxIr7/vvKAAKdOncJ9992nMtLExERViIgoNFkMnJyP053Zs2fjvPPOw6FDh/D3v/9d11Z49tlnsWnTJjRq1AhPP/20riUiolDkRcbpCufjFE2aNMGTTz6plhctWqSuZdrs378fjzzyiFqeNWsW/vznP6tlIiIKTR4CZxjNx1lYCKSlATfeCPz1r8AXX+gNvnHbbbehZ8+eKCsrwwMPPIDjx4+r+jTjnJKJduvWDSkpKarO5/z83gLp6J59+PqxeSh+4GF8NWMOft9drLeEvnB+b4EWCVNfCZ7TPX8d5yFwhsl8nK++Clx2GfDiizIiNPDCC0DnzuajD0mT7Omnn27EsUI89dRTePvtt7F48WI17mxWVhbq1Klhgu/Kyy/XynsLhP/mrsH2m+7AweWrcOLgf3Fw2VvYMeRu/GQ8hrqfVrwdtu8tGETC1FeC53TPX8dZ/yYP1fk4d+4E7roLuOkm4KuvgE8+AQ4eBG65BUYKCOzYoXesuUsuuQRjxoxRy//4xz9UhyDx8MMPo0OHDmrZp+S9ScekWnhvte3o3n3Y++hMNLn+WvzPu0sRu3gBLt+wEuf0vR77pj6B378s0XuGHnlvJZNmheV7I4oEFgNnHlKHbMfMAuesMwR61s6aBUiz6YIFMmK7WSfzWz73HHD22fjJ2P7pp59WKjKNUXXI9cyLL74YR44cQUlJCdq1a1d+jbM6ZMB3V69Pyn553qrem6wbWW6o2r/gZZSd+AMtpz2MuvXPVHVRRubecvIY1DmrPnZkLMPGTX9UKjt2BcesJIcOn3L5+qQUPLW0yvcWdeaZOLhkhaojouDkRdthiI4clJ9vPtoCi039+kDr1tjwyiu44oorKpXqXo+USadvkYxP6927t2q+rS4JkK5en5TMpUvNnVy9tzbGh7UndHtuHf7oU/VoCyw2dYy/7+kXtsDHq7/CoKTDlcqk2b/pPQNr+86TLl+flDfyzSnjXL63v7TA0a8DN3k6EXlmMXCG8HycN98MGL/ijdRNV2i//6461XQbPlyN/uNcMjMz9Y7ekXk8582bp9ck+XsOO2rQZNq5c2eXr09KclJS1e9NmnFbtdIVoadp3+tRx/jBcfKIYyA8deyYasq8qs9f8Eb22ZXKtHHmtF6B1qFdXZevT8qQ/nWqfG/SYej0P1+ga4goGFluqg3Z+TjvvVdGIDAff9NfVEeOAMnJgPFF1XTcOBWcnIvMKF8dDz74IA4fPowbbrgBl156qepdK9c6pbdtdTRs2NDl65PSYvx4t+9N1YeoZkMGGH+zUyiZ9BhOHT2q6k79fhT7Jj+GshMn0C7l/6Frlz9VKu0vqav2DbRGZ9dx+fqkXD6yv9v3du7gG1UdEQUnyxlnyM7HKQHw+ecBadZs1gy44grgoouAxYthpJVAp056x5qT8WqXL19uJIFnquH3nnnmGURFReH9999Hdna23suHavG91bbTW/4FraaNx6F312HL1f2xY+jd+Py6m/Dz6ny0nDIG9dterPcMPeH83ogigRfXOGX0IPtsU8/LGQpGjAC2bDF7oLZoYa5/9pnZ29ZH5F7Nv8o9lIZHH30Ubdq0wdVXX40777xT1Y0dO9Y/Y9TWwnsLlKY39kbsG9kqA6vX7Fxj/QbEvv4Czk3sr/cIXeH83ojCncXAKQMhyKjudtlmQSKWxYXQkHvt2wNz5wIrVpiPPr49ZNy4cfjuu++M07R3GHbvscceQ9OmTXHw4MHyW1V8zs/vLZDOvLgVLho/GjHPPKYez4xurbeEvnB+b0ThzGLglPk4k9DPvl22TR8kduGQe+KDDz5QAxxIs6wMgiADHtice+65mDlzplqW5lpOKUZEFNosBs6L0baL03yce1ZjGSe3Vp1/kpOT1QwoSUlJ6N69u95SQWZPufLKK1UHofvvv19NRUbBpXv/4bjkyhtclmv6VtxeRERkMXDK0HtLAPtetXG7MZZTi6mB22WIPcksn3jiCV3rSIbak0y0bt266taUqvajwDny2+/45dcjLotsIyKy8aJzkHPPWgZNIdnmvn37sHPnTnUtsyqXX345vv76a7XvXWHQcSccdGzXFpveecNjWZXzvD6CiMhC4NyTEY/G8RlwvpSZl2pknamhOCKCb11wwQW46KKL3AZNG9u+559/vq6hQKpX70/48wXNPZbzzztXH0GhIhJm8BA8p3v+Os5D4NyD1cuAmZkj4XwpMz59CZKy3wqdXrVEFDEiYQYPwXO656/jPARO6U1bVQcg6TDEXrVERBRZPAROd8HRXVAlIiIKTx4CZxuMHNsBEyoNdCCjCA3B9pmj2EGIiIgiSlRpaakaffzAgQNo3ry5qqxkTwbi4yZgk14VSUtKke4iasrzWB0gffrsuZg4brReCy7vvfceevbsqQYzmDFjhq6tPevWrUNubi6uvfZarF27VtcGn/37v9dLwWHDJycw+M5fUK8eMG507c+U8tHmP5D33nF0+996eP2Fhro2eFxwQfB0TPPm37/Mj1vV95PtO0c930OJupbIf6wFTi+ES+CUgdldDWZQ26677jq88847ei34BFvg/PjTP5B4+2G9FjjXXFUPOQsZON1h4KRQxcBZhaNHj6p7NOXey0CRARNGjRqFAQMG6JrgE2yB89hxYMzkX/Hd99Wbxs0X6tQB7hlxOnr3rBh6MVgwcBLVHAMn1UiwBU5yj4GTqOY8dA4iIiIiewycREREXmDgJCIi8gIDJxERkRcYOImIiLzAwElEROQFBk4iCjuRMPWV4Dnd89dxdeQeKCnCtlyTQkQUaJEw9ZXgOd3z13Eq45Sbh31ZiIiIwhWbaomIiLzAwElEROQFBk4iIiIvMHASERF5gYGTiIjICwycREREXmDgJCIi8gIDJxERkRcYOImIiLzAwElEROQFBk5vFaejW7d0FOtVCkJ7s3DjjVnYq1crrQdCMLwGIvIJBk4hwTAqClG6dEv3UVj0RZC1f45QCtoSKFpcgBa63LjACBlOdS1ajEF+pX11ncgfY7evUcYaWyo9h5T+kKevJByCVTi8hwCIhBk8BM/pnr+OY+DEKqTE5GBoURnKyqSsRKfCIr2thqJTsWFDKqL1arX44jlqXT7GXr0CAz7cj+++k/IqYov0V3/nqfhQ1RnlFWCEBIXWyfjPh1PRWW17Ar2M3fYu6I8WI4BXbPsa5RXjs1JB1f45VMnFva1lgxN53v8kw9WmkBEO7yEAImEGD8Fzuuev4ywEzmKkd4tCyqqKZZ9mZUGhEy4pj0wJyMxMqJzdOawX4gn9d4iK6oaKP4URhO0y15SF+hh9bHqK1KcYe7nZV20z2M5Xfl7jb397GjZuTEOMsX/w//1jcXH5t30vPP64hEMnvRIw4tMiF9nUXryzApj6oRlEbXo97rjukUO2VoRnb3TKUPX2BWOlzsx0VcB2zmQr7bcXC4znkgTYZPxQcJX1ynG257p6Mj7V1Q719uewz7bVcxrr+tzmU0ud7Th9flfPRUR+ZSFwFqFwYzIGGrEEq55AWqeVZlaW9oQOAKEuAQOTs9BXApj568CzjVsR+5KZoRbNAdJu14GtW19gpS1zLUNmD72/MAJe4UCpzzTO6GFfl6KR+tIcdO06B0XG/htSgzkH7YU+I17BCPkyr4gulexd8BRe6RxTOZvam4cVn9oHXiefTsbV5cHCKOWBxY1PCxEzz8xQjeQWk0fpY4znKuoj9WZQbn1vbkUm+0osJj+rX7/Dfq1xb9oIvLJab8tfhVdG/M0p65WsezJiX9HPJRl1eX0R0mzn+HAAVshrMTLLNONvZntK8zkT7H4oSLC+1UjB9XFGebxXFc+ljyAi//CqqXbV8ix0jY0xlmIQ23UrdgV70mNRQqYOYAOXmxmgpwDadSj667gV3X8oum4sRFFxLnIwB2PkB4YrRsAr3+Zp3zDQ63H9Zd5nlRncbAHULuhdvWIAPqyqGdJVQLVxbqq10pTZeQCu1zu1vn4AOtsyXeO57rdPY+0zOCOQobDY9X6SLb9iNh3nrzZ+JPRxyoX3FqPQ+Rgh9dA/KqRIJqpfS68+FcE4f3UhptofLD8m4Pxaq34uIvIfC4EzAZkroTKyvlnJmCiZjmSeqAgeYSMh0wigK5GctTxMsukg0OsJI7i9Wh5kHIJeVQGvdTRiP12Bd2o7AkjQtL82W54lumJm1avz87H6lRFwjptuOQd+ne2i10hMLZS/k/GchRWB3q2qnouI/MZaxqkCiq2ZUa+HXIeVKsg1RPsMs3gXtnaNNXJqg2SSqlKSxBxs1Mv2VH3yQCRE9zd+SqThCSsRt6p9LZzPfp+gJQHIvolWZV9uMshKeuF+aU692v6an5GFjXVcr66976zApw7NoHbsMlO1n7noUi/jRRaOuBWFU0dWfi6n4F/+XKp+MmwtwI5a4/oBhVg9dhUKB8Q7/r1ax2MAnI5z+1xE5C8WAqd0YrF1aLGRa3TOdSFKgtjWvuWddKKkh+1Lxo+C6FS8NGeree3TKLcXdkJXfYhcr5QOOlIfkzMURdKZSF+D3NpXP49RUtaZu1fmYt8iN+ezMV7TRH09Nqg7B8mXfOGtZvOhakI0srh5bppTVaYnzYzSjGsGR7nW+OHUwopmSKOMMH62qQBl19xrFgudYpybiF11VpLrjLEV+40qinWTcRrkfXbujAEuU8NeeFyukV7t/FxGvZHJFo6wvXaj2F2jlWbkwleAtErdhFvj3nmOx43Nd/9cROQfUbt27Spr27atXnVFAudyDLRlm4oEztuBlzagJn1Ups+ei4njRus1CkX793+vlyKQ3Gc6J6bq67RB6IILztdLgefNv//du3ejefPmes3RgQMHIN9h6vkeStS1RP7jJuOU4CjZT19kGf+zZUJmiUFap4k1CpoUHurU8ap/WVhRnYLSQidoRvJnReRLbv4lRSN1Q8XtEpWKap6kSNeoUaOI/UKWnsOuWnyDkXxG8lkRUc1ZaKo1rEpBVN8svWKTjJUOzbfeY1MtUeRiUy2FKgupwiqk9N2KOeVD0tlKzYImERFRKLLYxmY/JB0REVHkshA4EzBmzlYsD4t7T4goEkTCDB6C53TPX8dZaqp9Im0jsuzuOTRLmNzHSURhJxJm8BA8p3v+Os5SxpnpcG2T1ziJiChyWbvGKcPSqSxTT6ElvWztp8AiIiKKEBYCZzHSbzcnel6ZrKsSxmAOcpDLyElERBHGQuCU+TjZq5aIiEhYusYpEz079KoN12nFiIiIPLB0jTMhswix02U+zo1Ii4lCVF9gZbhMK0bkY6dOnUKnTp2wfPlyXUNE4cRa56BK49ayRy2RK48//jiuv/56bNu2DcePH9e1RBROrAVO6UXrcA+nFN7HSZHpxIkTWLFiBZ555hksW7YMhw4d0luAkydPolu3bnrNkQRTKT/99BMWLFiAp59+Gt98843eSkShwkLg5Fi1RDYSJOPi4jB69Gi8/fbbGDNmDC699FK9FRg/fjwmTZqk1xxNnz4dgwYNQseOHZGeno5HH31UNenu3LlT70FEocBiUy171RKJf//73/j222+xY8cOlXUWFRVh/vz5eqtnkpHm5eVh+/btKCkpQZMmTTB16lS9lYhCgYXAybFqiWykteXIkSMq25QgKJct+vfvr7d6dvnll6uMU0jQHDZsGD744AO1TkShwVJTLceqJTLdeuutuPrqq5GYmKgCnwTNDRs26K3ea9GiBX7++We9RkShwFLGybFqiUwNGzZEfn6+amqdPXs2vvrqKyQkJODXX3/Ve3hHOgo1bdpUrxFRKLB4jXMVUhyyTT1mLVGEOXDggHps3749Ro4cqXrHHj58uLzeG3K/p9zree211+oa8pVImPpK8Jzu+es4C4GzGOndZMQDu2yzaChyYthUS5FHesPecMMNWLhwIZYsWYIpU6aonrGtW7dW2zMzM9VtKmLVqlWYN28efvjhB7Uu3nvvPTz88MOYO3cu4uPjVQch6V1LvhUJU18JntM9fx1nIXDKWLXJGGjfLhvdH0O7bsUuZp0UYe666y60a9dOBciZM2eqgLlmzRrUqWP+U9q8ebMqw4cPVwMgfPzxx6ozkU10dLS6ppmTk4NmzZqpjkExMTF6KxGFAguBMwaxXZ3Gqi3ORQ4HfqcIJEFOssVPPvkEn332GTIyMnD++efrrVBNt6+++qpDsWWj4sILL0RWVhY+/PBDdWuLrYctEYUOC4FThttbCdj3qo0pxER2DiIioggUtWvXrrK2bdvq1do1ffZcTBw3Wq8FH7m5XW52D5S6deuiS5cuOOOMM3QNWRGsn9uLL76o+ggkJSXpmsjmzb//3bt3o3nz5nrNkXTMku8w9XwPJepaIv+xFjiL09EtJg0b9SqQjJU+yDiDOXDKl29sbKy6yT2QBg8erDqhkDX83EIHAyeFKmu9am9PQyf7XrXSctst3dgSviRjsX35NmjQoNbLaaedps5t/LBRj2QNPzci8rfq9apNGIM5yEFuBPSqlS/DX375pdbLjBkz1Pl5c3z18HMjIn+xEDgTMDDZ+dYTCabsVUtERJHHQuBcheVZG5EWY9erNqovsoz/9VXLHAiBiIgih6WM0/VYtbbC21KIiChyWAic0qm2m122aSvMNImIKPJYaqp9Iq0TVjLTtOT999/H5MmT1dBsUsaMGYMXXnhBjUlKwS83NxfPP/88jh49qmuIiBxVs3MQOfv666/RvXt3VaZNm6aCpZQnn3xSBVAZdk3mcTx06JA+goLNiRMn1Gd17733VnuaMAoOkTCDh+A53fPXcZaaamNi4dQ5iE219mROxR49eqhsU+7ju+OOO9R4ps8995yaCcM2HqlMeCy3LFBwkcHYP//8c9x222348ccfdS2FskiYwUPwnO756zg21fqA3Lu3d+9eNGnSBFu2bEF2djZGjRqFlJQUNdnx1q1bsXLlSrRp00YfQcHijTfeUEPjXXbZZVi8eLGuJSKqGptqfeA///mPepQxSGW4N1cSEhJQUFCgppKi4CGzldx6660YMWIE+vfvr2uJiKpmKeOsfB9nCDbVFhYCaWnAjTcCf/0r8MUXekPNSVOtOPPMM9VjVRo1aoTTTz9dr/mQH99bwPn5vV155ZV4+eWXVZk1a5auJSKqmqWM0/V9nCHUVPvqq8Bll8n0FDIiNPDCC0DnzuajD1x00UXqccWKFaqDSa0yvvD9+d4Cys+fGxFRdVjqHCRZZ4pDttkN6aHSdLtzp0zbD9x0E/DVV8AnnwAHDwK33AKkpAA7dugdq2/YsGHqcdu2bejZsyfWrFmjOpz4nby3e+7x63sLmFr43IiIqsNC4CxGere+gP3sKEVDkRMTIk210vwmQWzBAhn526yTeRKfew44+2z8ZGz/9NNPKxWZxsiqhx56SAVMITP733DDDaqjUHx8vGr+k4BaXdIL19Xrk7L/kUeqfm+ynpVl1oWiWvjciIiqw0LgdDE7SnR/DO0aIh2G8vPNR9uXr039+kDr1tjwyiu44oorKhXpEWuV3ILy9ttvY86cOWjfvr2q++233/DOO+9gwoQJ+J//+R8VRGWuSG9JMHD1+qRkLl1q7uTqvUkP3j17dEUIqoXPjYioOiwEzhjEds3Ccvv0sjgXOaEyO8rNN0uvHUnddIX2+++q40m34cOxefPmSiUzM1PvaE29evWQmpqK7du3q7kYs4xs75ZbbsE555yjsnQJojI4ws8//6yPsKZz584uX5+U5KSkqt+bNHW2aqUrQlAtfW5ERN6yEDijkbpBZq62u8YZU4iJodI56N57gVOnzEcjC1SOHAGSk4Fjx9B03DgVnJyLzChfXXKsjD6zaNEiNbGyZJ3i+++/x/z589WyVQ0bNnT5+qS0GD/e7XtT9aEqAJ8bEZEVFjsHOfesDaEetfJF+vzzgDRryj2UV1wh3WABudldspNOnfSO/iE318sACdJcK9avX68efSLA782vwvm9EVFIcxs41awo3dLhfClzVYqRdaaE0F2cI0YAW7aYPVBbtDDXP/vM7LVZS2zXPn1+u0oQvDe/Cef3RkQhy03gLEZuDjDnpVQ4X8pMyFyJ5KzloTUAggSuuXPlZkvzsUMHvaFmSktLMWXKFJySZkU3dujbJ2zj1vqUn95bUAjn90ZEIclN4JTetFV1AJIOQxyGT/zxxx+YOnWqmvkkLy+vUgA9efIkHnnkEXzxxReoU6eOkSwxWyIiCmVuAqe74OguqEamjz76CL1791Zjnw4aNAj3338/hg8fjlatWmHmzJlqHwmgcXFxapmCw8aNG9UAFlL+/ve/61ppHb6nvF6mjKPQEglTXwme0z1/HecmcEYjdWInpFUa6EBGEeqLrXPGhE4HIT+S201kkPeBAweqW1L279+PpUuXqinFXnvtNXzzzTdo0aKFmjFF5umk4CJBMScnRxW5F9fmzTffLK/nHKqhJxKmvhI8p3v+Os5t5yAkZKKsKBbTHYbbM0cR2pDKdFNI86vMqrFs2TI1l2N+fr4KknLbiTzKSEIlJSVqjk4KPvLZ7du3z2255JJL9N5ERJ4Cp4hOxQaHW1HKkMlU0yWZ/USG3pMg+cADD6jHbt26qUyUglP9+vXVIP3uCj8/IrLnOXASERFROQZOIiJCaelx7NhRqkpJyRH88MPRoC6211pU7DQsZy2I2rVrV1mghimbPnsuJo4brdeCy3vvvaeaXRs0aKBmKKltTz75JMaMGYNrr70Wa9eu1bXkCT+30OHNv3+Z9aZ58+Z6zdGBAwfUUIvq+R5K1LXkrfse2IjMBTv1WuioV68Ojh+p3T4kzDiJiIi8wIyzCrbMRaYMk7Fma9u6deuQm5vLzMVL/NxCBzPO4PLQ2E14Kt2cO/j888/En1vUV8vBqKwMKPjsJ7V81ll/wq8/36aWawsDZxXef/99NQ1YoF133XVqSjKyhp9b6GDgDC4vv/olbr/TnIRiwrhLMWNa8A7WcuzYKZzR8EW1HH3x2SgqHKSWawsDZxWOHj2K5OTkgI4aU7duXYwaNQoDBgzQNeSJLz43GX94y5YtuOyyy9C4cWNdax0/N2sYOIMLA6d1DJxETqS5VZpapdm3R48eupZ8jYEzuDBwWsfOQURERF5g4CQiIvICAycRhZ1ImMFD8Jzu+es4Bk4iZ2VlaKQeysx1CjmRMIOH4Dnd89dxKnDKhXdfFqKQdOyYTJqK7oMHo9RY7TF0KCBzqZ48aW4nIjLUkZ5qtt5qtuWaFKKQdOoUILePPPkkogYNAv75T0T17Ak8+ihw5516JyIiNtUSmV58EVizBli6FMjMBP72N2DxYnP55ZeBvDy9IxFFOgZOIjF5svnYr5/5aHPPPdIUA7z5pq4gokjHwEkk5DpmkyZ6xU5UlAwFBPz6q64gokjHwEkk7rsP+O03YO9eXaF9/DHw3XfAVdXvSk9E4YWBk0g88ADQrBnQuzewZIl0NQdeew0YPBho3x5IStI7ElGkY+AkEuecA8hsJvXrA3IbyiWXAMOHA61aAW+/DZxxht6RiCIdAyeRjQTLzz6TucmARYuAzZvN5Qsv1DsQRbjV4xHVfSGK9WqFtUg5rSVSVuvVMMfASWSvjvFP4pprgFtuATp31pVE5Kx4XiKiThuPVXo9kjBwEhGR16JHLUPZ8VlI0OuRhIGTiIi857LZ1myyjdIlXJtuLQbOPciIb4xUNXiKuSwz48dn7FFbiYiIsgaswcDj+4xM1CgrhhvriUivfEE05FkMnF9i96Yk9Is3FvPmYUKHJSgtXYIOE+aBA5ERUbCJhKmvRCDOiYJ0vVBZ8gq7pts+KZhzVQFyVpao1VB6n56O87qpNu+tbHRpe7GxdDHadtmOIiadRBRkImHqKxGIcyIuVS940gqXdAQ27jQHFQml9+npOIuBMx7pS4AhjRtjSHYSxo5sY2aeSEQfY5H8qDgd3bqlu+j+TUREgWA944xPR2lpqVHSjTCq1/NGIiTipgSfqChE6dJNGt2d6qKiUsxu1Q71uk6sSrHb1ygpxpZKzyGlW83b9F0FS1d19jxtD4hVSPHna3L3np0+G/WZB7ug/AyJqqsEu7YByQN66vXwYT1w7slAvJFxNm4cD9UnKC8VjeMzEPwttcaXd0wOhhaVqRn9y8pWolNhkbmp6xwUqTqjrAT6ypdWdCo2FM1BV7UtU7XXF6d3Q1RfYKVtX6OsxHIzqNo/hyobkBotG3xMXteGVPjjqf1B/c2MP1qWXq9dbj5zIvKbrbvN65mieF4a0j4ajoF9dEUYsRg49yAjZRkSC0qxxDZkZ/wozMQyrA6Ja5ydcEl5xElAZqaLO48SBiJ5YyEqf70WIzcHmFNkBlGbhEzH9SrpLCI9pSL7kWS1fFt5VmTLVIuRfnsaNm5MQ4xkStk/ql3tsxEzKOnjVJ3TMUGQXUWnbkCZ/ADR65Wo95NiZKS291/V38WuJaD87yh1nt6zh8/czfkd/r62z6XS+d3tV/G8KauM11m+LM+u93E+ztX7cbkfURB7Pa38VpSYv7fDyjC9z9Ni4JRetR0QE5LXMxMwMDkLfeXLp/ybq7Li9OnI6hqLGL1erjgXORvtv4Sd6C8688vNKDq4OTD2KRyos5+VyciaLvtIVlSIibZMtWgocm6X+mikvmTLeMuwIamZfhLN+DK9Pa1Tefa7spMEe6dj/JLy+sHGrYh9ye7v0lcCkvxd0tBppVlfNGcr+to+t/K/o/xocfeerX3mrs+vg77UqfpOSHvC1fnd7aefVz3n7YBt2ZvPPbWoiv2IAqjPLJStv9ts+bJfRk9kHt+HDetlUAR9O0oYD45guXNQv6RsvGV/70kIdQ5KyNRfPgOXm8HN7ovYFvRicoaiqKqmUFcB1ca5qdbVcxj7jLH9FxQTa2ZhxbuwFfrLXYoRLDa6zHidRF9i5FJynPklbznzDQL2GZrKpLsORX/bH0syfuMvsutd4+9i9/eK7j8UXbMqmsXL/44eVPmZ23N1folM9ple3yxg6y4zYDmfv8r99PPKZ22/LNusfu7V/e+DiPzO8jXO+PQCtH1cetVuwoS4xmg8BFgSKp2DbBIyjS/TlUi2+yIuD3pVBU0JVBtzkOuPn/r251fFShBMQKbadyCWqy9VM4CGAvsMrVIm7S/On7kn+4xgaH99tKrmZgmaVvZzxernXq3/PojI36x3DjJC5Mg86VVrK7p3bbCTLzj7bEN+ybvLICtJwJg5QFqMY4BalVLDgKUCchpsrXuVVJVdGO8nRV3skgBahDlddZYkQjkjWbUcWZKdXef4dynOzcHG5IFVBwyX2Vo1PnPb+Vsay3aZqDq/uViZ1f3sWf3cPe1HRAHjIXDmIbVxqvH/8mgOs+dYZFuQi+6PoVv7ms1dqsnLyBJectM7VWUStk4aFde81LU223MYpS/0l7nar6LeeicOI/AZWcrWvnbH2q6PRqdior5GV945yMb4QjWiuD4mBjlDXzJ78dofEwS9SFSzbPnf0a5jjD37v530WlZZv+PfJUau57rqzCWqes9WP3NX55fn7FRRf3thJ9eZpNX9KrH4uafHVL2f8V9lSnlLQ1XLROQvUUb2WCYLBw4cQPPmzVVlTcjztG3bVq+5N332XEwcN1qvUUSRHyjSb6aqJnJ/C/T5yat//7t3767y+8n2naOe76FEXUveevnVL3H7nevV8oRxl2LGtDi1HIyOHTuFMxq+qJajLz4bRYWD1HJtsdhUa8s8iYiIIpvlXrWjZm537FVLVBPRAR7QIdDnJ6KQZTnjnDdhE7KHhOA1TiKKOLU9m4bgOd0LpXN6Os5yxple3ps2BHvWElFEqe3ZNATP6V4ondPTcRYDpwxVG++UbTLjJCKiyONFU20HLCktwMwuScajkW0WzESXpH7MOImIKKJYzjhNbRDTwbbYB4nbHzdnSiEiIooQFgPnxWjbZTuKjCB5cVtb79pQHvidiIioeqo1AEJeqoxZ2wUzC/Iw0ilwcgAEIrKCAyAEl4fHb8bj/9yqllte1ACtWzdQy8Ho1Clg/fvfq+WGDerh8H9HqOXawpGDiCggGDiDy30PbETmgp16LXTUq1cHx4/coddqh+XOQRw5iIiIyIuMU25HmReTh3QP3WiZcfrOsWPHcPjwYTRrVktTcBHVImacweXAgd+xo/CQWj67UT00bnSaWg5GZUbU+vrrI2r5zDPr4qora/c70mLglIxzCLL1WgW5NcVxEAQGzppbvnw5HnnkEezcuROnTp1CdHQ0srKy0LNnT70HUehj4KRQZbGpliMH1aZt27bh5ptvxqefforPPvsMF110EQYPHoyff/5Z70HB5plnnsFf/vIXDB06VNeYPv74Y1Uv/16IKDxYv49zTwbiOWqQT504cQIrVqxQX7rLli3DoUNmM4lkmxMnTsRll12myqxZs/Df//5XBVIhgVXKTz/9hAULFuDpp5/GN998o7ZRYPzyyy8qOL7++uvYsGGDrjWb2+WzkZYDIgoPFgPnHmSkTECHJXbZ5hJgSHyGsYWqQ4JkXFwcRo8ejbfffhtjxozBpZdeqrbJpMX25MtXNGrUSD1Onz4dgwYNQseOHZGeno5HH30UnTp1Uk275F9V/dgRF154IW666SZMmjRJ11T2wQcfqEAqTY9z587FCy+8gCNHzGs1RBQaLAZOGewgCf3s22XjR2EmlmE1I2e1/Pvf/8a3336LHTt2qC/ioqIizJ8/X291lJ2djQsuuEBlnzYnT55EXl4etm/fjpKSEjRp0gRTp07VW8kf3P3YsZHPYO3atVi/3pwQ2NmQIUPUj57//d//Va0F9913H7p164bff/9d70FEwc7yNc5+SdlO83Fy5KCaKCsrU5mGfAFLEJQss3///nprhZUrV6qsZM6cOahXr56uBS6//HKVcQoJmsOGDVPZDPmPlR87HTp0UJ/F5MmTdU1l55xzDoqLi1Vz+0cffaR+/MiPI/KdSJj6SvCc7vnrODeBU3rSVlzTHGL8u3acj9NVL1uy6tZbb8XVV1+NxMREFfgkaNpfGxOff/45brnlFkyYMEF9GbvTokULdh7yM6s/dqZMmaJ+xOTn5+saRwkJCTj33HPVsvwAuuqqq/ijx8ciYeorwXO656/j3ATOqnrS2hf2qq2uhg0bqi9WyTZmz56Nr776Sn2h/vrrr2q7XK/s3bs37rnnHvzjH/9Qde5IR6GmTZvqNfIHKz92hNwaIfu6yzrt8UcPUWjx0FRrGzHIMfusKOxZW11y75lo3749Ro4cqa53yWAHUi/BVO7ZvOOOO/DPf/5T7eeO9NiUez+vvfZaXUP+4OnHjj3pICS3oqxZs0bXVI0/eohCi4fAKVmnZJW8j9PXpDfsDTfcgIULF2LJkiWqeU96xrZu3RoPPvig2kd6cKalpZWXjIwMVS/ee+89PPzww6pnZnx8vOogJL1ryX/c/dhx1qZNGyQlJWHevHm6xrX9+/errJU/eohCh8XOQa5w/NqauOuuu9CuXTtkZmZi5syZKmBKdlKnTh31JdqrVy/88MMPDsW+OU9GE5L1nJwcNSSfXCOLiYnRW8kf3P3YcUV+yBw/flyvVXjuuefUZ/7YY4+hR48eqml3xIjand2BiKqvBoGTakKCnGSLn3zyiRodSLLJ888/X22Ta2OvvvpqpSIDI9jIPYMyDN+HH36oenvaetiS/7j7sSNZaL9+/fSeJhnx6fHHH8fw4cNx+umn61qo24rkM3/zzTfRp08f1fxrv52IghsDJ5FF7n7sDBgwAE8++aRatjdq1Cj1o+ess87SNVC9aCVjlSZaacrl9U3ypeJ5iYg6raVREpFerCsrKUF6d9nHKCPX6jpD8UJ0U8c6Fft9yNMg71UN7m4T3oO8y316ct9eoNStWxddunTBGWecoWtML774oro1Qq6hUWXB+rkJGchi/PjxKqBGOg7y7i8SFHsgTe6ouCcbZRkuJodYPR5RAxYZC8Ox8vgsJDjUVSUOc3YsQ2q0Xo1gnMi6CvLlGxsbq+7XCyQZ3F2yE7Im2D836W17/fXXo3v37romcjFw+pFkju2nYaOxmLxiHzL7mNWmtUg5LQlZxpLDNhU4URFIbeyeC1dNQtH6uxHpsZNNtVWQjMX25dugQYNaL6edZs6Ft2vXLvVI1gT75zZt2jQGTfK/6Lsx8R5zMWvmQti32BbPm6eCpgTBMfYBtc8slDkHTWE814YVw83lj3KRW2Xzb+Rg4PRAvgxl5ovaLjNmzFDnj+jrXydOAAsXAjJq0pAhwLPPAi56qbrCz40iXUJGNpJl4aNpuH1eiaqT7PH2vxcYC3GY8y8vMsfoaHTVi8TAScHq8GGgRw/g3nuBHTuALVuAkSOBq68GOMoOkQU9MebJOLW08e+ZWGU8rnrKbHLt+uQcXqusAQZOCk4yCMQXXwBr1wJbt8rFS+D994EvvzS3EZFH0aPmYI4ar3wR+p7WEn2fl+XhmDiqlSxYVrwy17zGiXa4hAGXgZOC1GuvAfffb2adNtdcAzz8sExTgm3r1qmJvZ2LdCIhioQZPITnY1shdYK+Pqklr5iFu70651o8oZp3JVNN8fLYCqH0t/V0HAMnBac//pALlXrFjgz0cOoUkq69FldccUWlkpKSonekSBYJM3gIS8f2SdFZp0F3CPLmnKtGmj1w5diXjEw1aN+nC/46joHTR/4wvuhXr16tRveRkWJkwmIZX1amoJJ7LslLf/qT2TnImZFVom5dZOfnY/PmzZWKjOpjlQxZ+Prrr5cX6dxTlbfeekvtI0MfEoWU1ZnmPZ3CvqOQBTKYgtm862VnojDHwOkD77//vrqxXWbKkKHYXnvtNfUlK2ObypBqMr6puy9lckHGbn36aRnNXlcYZM5KGZ1n8GB07NkTnTt3rlSs3kMs5J5P+YFjK0899ZTeUllycrLa5wu57koUMtYiRQ9qkHyP2WRr6yjkiQTNGFsPXA584MAhcMqNxDUtkUjuHTx48KAam3T06NFq1oxnnnlGBVKRl5eH++V6HVln/OhA+/aAESClKzw6dQLk/sd27czbUvxAfuhwXkwKJ+X3bN6TjcwMW5PtIvT1MIQeg6Z75YFTRuXwRYlE55xzjmoi/PLLL9WXr0w+LdNOrVy5svya26JFi9QUUmRRo0bA+vUw/rDGv904IDbWXJass0kTvZNv1K9fX81yIlPlWZn/lCgk2N+z+TcZdq8VUv81ybwf8/kkpKyWhcoYND1jU60P9O7dWzXl/Umuyzl56KGH1KNc59wi9yKSdfXqSRspkJNjFrmnU4/M40syu8nUqVPVsgy6LhNLE4W2EqTf5eKeTTcjComKoClj2DJoViVyAmdhIZCWBtx4I/DXv5r3CNYCGcHGxtXcjD4RoPcWTgYOHKiukcq16CeeeELX+hk/N/KX8g5Ble/ZdDmikGHVyJZ2QdPF0HtULjIC56uvyiSIMq2IXMgFXngBxrek+ehn0gHFRq6B+tzLLwfsvYWTqKgoNY6smD9/vv97z/JzI7+x6xC0wlUArDyikGSou7apBYM5WEKlqcVspXvlTDXShH/g3LlTZiAGbroJ+Oor4JNPgIMHgVtuAeT6owzn5kcyF6No2bIlLr30UrXsM/Le7rknYO8t3PTt2xddu3bFkSNH1ATUfsPPjfzI/r5Lh0Hc7TiMKMS5Nr0W/oFz1ixzYPAFCypuqJd5Ep97Djj7bPxkbPfXCDRbt25FdrY5m+kDDzygrqV5S5oOXb0+KfsfeaTq9ybrWeqfD3nBlnU+++yz+P7779VydfBzo0BJyNiHsuNGcTv9Vyukrtf7qfk67dY9FU4rFgGBMz/ffLR9QdnUrw+0bo0Nr7zilxFofvvtN9x2223quqZcO0tNTdVbvCNftK5en5TMpUvNnVy9tzZtgD17dAVZJXNl9ujRQ31+s+RHVzXxcyMKX+EfOG++GTjzTEkBdIX2+++qc0a34cNrPAKNs1OnTqmg+fnnn6NZs2ZYvHgx6kkP0WqQoOvq9UlJTkqq+r1Jc2Ar7wZyJtP06dPVY5aR+ck9utXBz40ofIV/4JRbGIxAph6NLEI5csS8zeHYMTQdN059yTkXb0agcTZ27FgsNbIK6VG7YsUKXHzxxXqL9xo2bOjy9UlpMX682/em6slr//d//4f4+HgcPXpUjQRVHfzciMJX+AdOCYDPPw8jksFI/4ArrpDurTDSQPOGehmRxofkfkC5if6ss85Cbm4urrqqeqPzW1LL7y2S2LLOhQsX4ivpwONL/Nz8rrZn0xA8p3uhdE5Px4V/4BQy7qkMPiA9GVu0MNc/+8zsbetDjz32GKZMmaJGopFMU66V+V0tvbeAkkmtS0v1Su248sor0a9fPyMBPIYZM2boWh+KhM8tgCJhBg/Bc7rnr+MiI3AKGfd07lwYEc187NBBb/ANyVDGjRunmuhkJo1evXrpLbXAz+8tYD7+GOjWDWjc2Bxmr3Nnc8i9WiI9bOX+zhdeeEENx+dz4fq5EYW5yAmcfjR79mxMmjQJTZs2xTvvvINrr71Wb6FqkwApf0fJNmX8WOnhKnN0Xn+944wpfhQXF4fExEScOHFC9bIlIhIMnD7w4Ycfqkf5gpWpp2Swg6rKYQkE5Nl995kDuxcUmMPSGdk8Nm0yB3yvxZlm5Jp1de6/JaLwxW8EH5KgKB1J3BW5VYUs2L4dGDDAcVB3WR41St2y8Y877lAz0DgXmZ3Glzp27IihQ4fqNSIiBk6f+Ne//oV9+/ZZKmeffbY+ijxyde9rVJR62GZknxs3bqxUtkvAteiyyy5Tn0mhDLbuxvPPP1/++V1zzTW6logiFQOnD8ggBzKAu5XCZj+LLrgA2LxZr9iR6cWaNsW/t2zBZ599VqnIJOJWnWZksPKZXHjhhbrGNbm1yPb5nSFD4xFRROO3OAUn6Qy0fLl5m8bateZA6HKrhtz7KLeH+GFeTiIiKxg4KTjdcQfwzDPAm28CcmvPlVcCr78uM02bM4gQEQUIAycFr5EjARkrdtUqYPVq4JtvzAmfiYgCiIGTgpt0purTB7jhBnOZiCjAokpLS8v0sk8cOHDA8gDp02fPxcRxo/VacHnvvffQs2dP1YHEL0OuebBu3To11q0MprBWrvGRJfzcQoc3//5lftzmzZvrNUe27xz1fA8l6loi/2HgrML777+P7t2767XAue6669RoRGQNP7fQwcBJoYqBswoypVRycjK+/vprXeM9Gd90y5Yt6n7BxjLeqpfq1q2LUaNGYYAMBECW8HMLHQycFKoYOP1Imu2kyU6aD2tlphTyCX5utcOfgVOmharOzBjVPU7wnO6F0jk9HcfOQUQUdqr7BV3d4wTP6V4ondPTcQycREREXmDgJCIi8gIDpz+VlaGRevDpZWTyN35uROQGA6c/HDsGPPIIug8ejFJjtYdMSzVzJnDypLmdghM/NyKygIHT12S+TbkN4cknETVoEPDPfyKqZ0/g0UeBO+/UO1HQ4edGRBYxcPraiy8Ca9aYs3hkZgJ/+xuweLG5/PLLQF6e3pGCCj83IrIE+P8QT1mTEoWVkAAAAABJRU5ErkJggg==;movable=0;resizable=0;rotatable=0;deletable=0;editable=0;locked=1;connectable=0;" vertex="1" parent="1">
          <mxGeometry x="319" y="273" width="462" height="305" as="geometry" />
        </mxCell>
        <mxCell id="Xm3lGTiGLxlE6etcZNfa-4" style="edgeStyle=orthogonalEdgeStyle;rounded=0;orthogonalLoop=1;jettySize=auto;html=1;exitX=1;exitY=0.5;exitDx=0;exitDy=0;strokeWidth=5;strokeColor=#FF0000;" edge="1" parent="1" source="Xm3lGTiGLxlE6etcZNfa-2">
          <mxGeometry relative="1" as="geometry">
            <mxPoint x="700" y="500" as="targetPoint" />
            <Array as="points">
              <mxPoint x="640" y="380" />
              <mxPoint x="640" y="500" />
            </Array>
          </mxGeometry>
        </mxCell>
        <mxCell id="Xm3lGTiGLxlE6etcZNfa-2" value="" style="rounded=0;whiteSpace=wrap;html=1;fillColor=none;strokeWidth=5;strokeColor=#FF0000;" vertex="1" parent="1">
          <mxGeometry x="450" y="330" width="130" height="100" as="geometry" />
        </mxCell>
        <mxCell id="Xm3lGTiGLxlE6etcZNfa-5" value="A newly-placed&amp;nbsp;&lt;i&gt;SPICE Library Device &lt;/i&gt;will appear as a simple square symbol, until you configure it." style="shape=callout;whiteSpace=wrap;html=1;perimeter=calloutPerimeter;fillColor=#f8cecc;strokeColor=#b85450;size=25;position=0.5;position2=0.42;" vertex="1" parent="1">
          <mxGeometry x="680" y="340" width="120" height="125.5" as="geometry" />
        </mxCell>
      </root>
    </mxGraphModel>
  </diagram>
</mxfile>
